<?xml version="1.0" encoding="utf-8" ?>
<svg xmlns="http://www.w3.org/2000/svg" xmlns:xlink="http://www.w3.org/1999/xlink" width="512" height="512">
	<path transform="scale(0.5 0.5)" d="M520.876 778.633C429.949 784.942 333.017 730.448 285.297 654.322C184.041 492.791 281.44 280.982 466.955 248.505C479.053 246.387 491.388 245.444 503.643 244.713C546.687 240.331 613.121 260.482 648.531 282.191C700.596 314.11 753.404 375.635 767.668 436.815L773.015 457.5C779.335 484.98 780.126 515.7 777.024 543.5C762.216 676.186 652.391 774.022 520.876 778.633ZM498.846 273.609C404.922 277.869 314.687 342.78 286.174 433.126L279.455 457.75C275.188 475.191 273.456 491.317 273.385 509.148L273.609 534.412C274.172 546.703 277.216 561.052 280.752 572.778L282.195 578.484C282.359 579.182 282.592 579.795 282.839 580.464L294.372 611.53C300.259 623.51 306.142 634.95 313.51 646.152C352.009 704.679 421.653 745.88 492.024 750.322C503.327 751.035 515.024 750.519 526.357 750.495C669.453 742.201 774.435 608.789 746.625 468C726.109 364.135 641.864 284.243 536.094 274.172C523.869 273.008 511.205 273.389 498.928 273.597L498.846 273.609Z"/>
	<path transform="scale(0.5 0.5)" d="M202.553 740.132C157.964 778.004 105.52 719.429 130.975 661.5C137.473 646.712 149.478 634.487 161.668 624.222C162.536 618.081 161.878 610.95 161.882 604.708L161.739 561.5C161.592 557.085 160.692 552.741 160.519 548.323L154.987 434.115C154.294 433.594 154.592 433.737 153.823 433.452C107.636 416.323 104.748 359.793 106.564 318.031L109.896 283.477C111.19 273.53 111.023 263.826 122.302 260.549C126.083 260.322 130.037 261.106 133.842 261.225L191.504 261.404C196.562 261.39 202.194 260.538 207.164 261.173C225.527 263.521 223.418 272.584 226.02 289.5C232.411 331.056 235.793 416.047 184.092 432.786L189.999 623.718C190.633 628.857 214.064 651.465 217.722 669.562C223.051 695.931 222.527 720.486 202.553 740.132ZM194.179 279.25L167.493 287.863C157.61 290.275 143.131 287.231 136.667 289.054C135.662 295.37 135.724 301.918 135.311 308.308L134.174 320.033C132.701 343.558 133.074 381.793 150.051 398.421C160.517 408.781 175.108 410.178 185.885 399.24C197.634 387.314 200.251 363.173 200.66 346.75L200.829 321.136C200.726 314.472 201.131 306.936 199.732 300.418L197.231 286.391C196.756 284.019 196.31 281.344 194.981 279.3L194.179 279.25ZM174.255 649.75C159.525 664.611 144.529 687.704 155.022 709L157.012 713.081C159.302 717.938 163.256 721.614 168.25 723.489L170.576 724.152C188.477 723.685 194.246 705.206 193.512 689.81C192.841 675.745 184.952 660.148 175.236 649.822L174.255 649.75Z"/>
	<path transform="scale(0.5 0.5)" d="M855.69 364.675C841.792 361.942 842.173 353.648 842.242 342.244L843.727 298.655C844.191 285.593 839.189 264.883 857.037 262.128C868.086 263.105 869.999 269.449 870.008 278.687L870.008 331.517C870 338.642 871.882 349.959 868.406 356.421L868.087 357C865.353 362.038 861.3 363.884 855.69 364.675Z"/>
	<path transform="scale(0.5 0.5)" d="M824.009 637.186C825.815 634.68 827.86 631.255 830.31 629.392L830.83 629.004C833.558 626.836 832.579 621.192 832.581 617.974L832.713 578.343C832.838 574.278 833.7 570.284 833.795 566.243L834.199 528.933C834.426 524.972 835.24 521.069 835.545 517.116L838.553 462.888L841.175 433.323C796.736 416.661 794.728 368.919 794.984 328.123C795.056 316.512 794.008 303.451 796.437 292.008L798.342 279.521C801.276 253.637 830.91 255.157 824.912 293.002C823.27 303.362 823.248 313.795 823.215 324.25L823.237 352.909C823.383 360.834 823.335 371.861 826.565 379.416L828.476 384.531C839.871 408.318 863.523 416.794 878.649 392.032C885.173 381.351 887.578 369.966 888.523 357.75L889.243 286.673C889.178 275.473 885.695 265.09 899.941 262.106C914.36 261.518 914.805 278.127 915.785 288.934C916.863 300.811 917.063 312.784 917.145 324.705C917.424 365.32 915.924 418.181 869.54 433.333L863.3 525.016C863.156 530.434 863.175 536.683 861.865 541.955L861.574 543.042C860.578 547.981 861.187 554.324 861.123 559.402L860.817 617.981C860.911 624.674 863.167 624.548 867.894 629.112C879.618 640.432 888.441 650.865 894.007 666.25C903.215 691.701 900.957 727.194 876.741 743.871C861.009 754.705 839.787 753.987 824.75 742.279C799.657 722.742 797.392 683.29 811.004 656.473C814.575 649.437 819.112 643.34 824.009 637.186ZM849.689 648.96C839.991 661.593 828.102 677.789 830.217 694.809L830.631 697.5C832.59 709.777 838.74 723.774 852.911 724.211C878.36 719.35 873.969 678.436 860.205 661.235C856.859 657.054 852.82 653.286 849.689 648.96Z"/>
	<path transform="scale(0.5 0.5)" d="M516.503 679.552C509.831 679.601 502.887 679.921 496.25 679.248C400.042 669.482 332.793 581.214 346.885 485.25C358.568 405.687 428.658 346.349 508.283 343.822C580.491 339.605 646.844 390.562 669.999 457.5L673.764 470.57C674.597 475.354 676.201 480.176 676.999 485C693.271 583.394 617.78 679.107 516.503 679.552ZM500.023 372.059C461.612 377.742 426.018 393.585 402.126 425.624C327.421 525.807 404.268 661.706 525.118 651.717C536.474 649.881 547.294 647.888 558.174 644.18C619.816 623.172 659.238 557.789 650.153 493.432C642.28 437.653 602.419 390.304 547.182 376.262C533.225 372.714 514.616 370.324 500.023 372.059Z"/>
</svg>
